# WaveFront *.obj file (generated by Autodesk ATF)

mtllib CapV2.mtl

g Solid1

v -6.000000 8.000000 0.000000
v -5.795555 0.000000 -1.552914
v -5.543277 0.000000 2.296101
v -4.596267 8.000000 -3.856726
v -4.596267 8.000000 3.856726
v -4.500000 1.000000 0.000000
v -4.500000 8.000000 0.000000
v -3.652568 0.000000 -4.760120
v -3.447200 1.000000 -2.892544
v -3.447200 1.000000 2.892544
v -3.447200 8.000000 -2.892544
v -3.447200 8.000000 2.892544
v -3.000000 -5.358000 37.072999
v -3.000000 -5.358000 42.048836
v -3.000000 -1.000000 5.196152
v -3.000000 -1.000000 37.072999
v -3.000000 0.000000 5.196152
v -3.000000 4.000000 5.196152
v -3.000000 4.000000 42.048836
v -1.411195 3.000000 4.273000
v -1.411195 4.000000 4.273000
v -1.041889 4.000000 5.908846
v -1.041889 8.000000 -5.908846
v -1.041889 8.000000 5.908846
v -0.781417 1.000000 -4.431635
v -0.781417 1.000000 4.431635
v -0.781417 8.000000 -4.431635
v -0.781417 8.000000 4.431635
v -0.477570 3.000000 4.474587
v -0.477570 4.000000 4.474587
v 0.000000 0.000000 -6.000000
v 0.477570 3.000000 4.474587
v 0.477570 4.000000 4.474587
v 1.041889 4.000000 5.908846
v 1.411195 3.000000 4.273000
v 1.411195 4.000000 4.273000
v 2.250000 1.000000 -3.897114
v 2.250000 1.000000 3.897114
v 2.250000 8.000000 -3.897114
v 2.250000 8.000000 3.897114
v 3.000000 -5.358000 37.072999
v 3.000000 -5.358000 42.048836
v 3.000000 -1.000000 5.196152
v 3.000000 -1.000000 37.072999
v 3.000000 0.000000 5.196152
v 3.000000 4.000000 5.196152
v 3.000000 4.000000 42.048836
v 3.000000 8.000000 -5.196152
v 3.000000 8.000000 5.196152
v 3.652568 0.000000 -4.760120
v 4.228617 1.000000 -1.539091
v 4.228617 1.000000 1.539091
v 4.228617 8.000000 -1.539091
v 4.228617 8.000000 1.539091
v 5.543277 0.000000 2.296101
v 5.638156 8.000000 -2.052121
v 5.638156 8.000000 2.052121
v 5.795555 0.000000 -1.552914
vt -0.000000 0.935800 0.000000
vt -0.600000 0.935800 0.000000
vt -0.600000 0.000000 0.000000
vt -0.000000 0.000000 0.000000
vt 0.102416 1.335800 0.000000
vt 0.102416 0.400000 0.000000
vt 3.787685 0.400000 0.000000
vt 3.787685 0.800000 0.000000
vt 3.787685 0.900000 0.000000
vt 0.600000 0.900000 0.000000
vt 0.600000 1.335800 0.000000
vt 0.197584 -0.300000 0.000000
vt 0.197584 0.300000 0.000000
vt -3.487685 0.300000 0.000000
vt -3.416415 0.104189 0.000000
vt -3.416415 -0.104189 0.000000
vt -3.487685 -0.300000 0.000000
vt 0.497584 0.400000 0.000000
vt 0.497584 1.335800 0.000000
vt 0.000000 1.335800 0.000000
vt 0.000000 0.900000 0.000000
vt -3.187685 0.900000 0.000000
vt -3.187685 0.800000 0.000000
vt -3.187685 0.400000 0.000000
vt -1.525411 0.300000 0.000000
vt -1.525411 -0.300000 0.000000
vt 1.662274 -0.300000 0.000000
vt 1.662274 0.300000 0.000000
vt 0.000000 0.300000 0.000000
vt 0.600000 0.300000 0.000000
vt 0.600000 0.400000 0.000000
vt 0.000000 0.400000 0.000000
vt -0.519615 0.300000 0.000000
vt -0.519615 -0.300000 0.000000
vt -0.229610 -0.554328 0.000000
vt 0.155291 -0.579556 0.000000
vt 0.476012 -0.365257 0.000000
vt 0.600000 0.000000 0.000000
vt 0.476012 0.365257 0.000000
vt 0.155291 0.579556 0.000000
vt -0.229610 0.554328 0.000000
vt 0.158881 3.280000 0.000000
vt 0.252243 3.259841 0.000000
vt 0.347757 3.259841 0.000000
vt 0.441119 3.280000 0.000000
vt -0.141119 0.050000 0.000000
vt -0.141119 -0.050000 0.000000
vt 0.141119 -0.050000 0.000000
vt 0.141119 0.050000 0.000000
vt 0.158881 3.280000 0.000000
vt 0.252243 3.259841 0.000000
vt 0.347757 3.259841 0.000000
vt 0.441119 3.280000 0.000000
vt -0.000000 -0.450000 0.000000
vt 0.289254 -0.344720 0.000000
vt 0.443163 -0.078142 0.000000
vt 0.389711 0.225000 0.000000
vt 0.153909 0.422862 0.000000
vt -0.153909 0.422862 0.000000
vt -0.389711 0.225000 0.000000
vt -0.443163 -0.078142 0.000000
vt -0.289254 -0.344720 0.000000
vt 0.300000 -0.850400 0.000000
vt 0.300000 -0.754705 0.000000
vt 0.300000 -0.659011 0.000000
vt 0.300000 -0.563317 0.000000
vt 0.400000 -0.563317 0.000000
vt 0.400000 -0.659011 0.000000
vt 0.400000 -0.754705 0.000000
vt 0.400000 -0.850400 0.000000
vt 0.100000 1.413717 0.000000
vt 0.100000 1.099557 0.000000
vt 0.100000 0.785398 0.000000
vt 0.100000 0.471239 0.000000
vt 0.100000 0.157080 0.000000
vt 0.100000 -0.157080 0.000000
vt 0.100000 -0.471239 0.000000
vt 0.100000 -0.785398 0.000000
vt 0.100000 -1.099557 0.000000
vt 0.800000 -1.413717 0.000000
vt 0.800000 -1.099557 0.000000
vt 0.800000 -0.785398 0.000000
vt 0.800000 -0.471239 0.000000
vt 0.800000 -0.157080 0.000000
vt 0.800000 0.157080 0.000000
vt 0.800000 0.471239 0.000000
vt 0.800000 0.785398 0.000000
vt 0.800000 1.099557 0.000000
vt 0.800000 1.413717 0.000000
vt 0.100000 -1.413717 0.000000
vt -0.400000 1.256637 0.000000
vt -0.000000 1.256637 0.000000
vt -0.000000 1.649336 0.000000
vt -0.000000 -1.727876 0.000000
vt -0.000000 -1.335177 0.000000
vt -0.000000 -0.942478 0.000000
vt -0.000000 -0.549779 0.000000
vt -0.000000 -0.157080 0.000000
vt -0.000000 0.235619 0.000000
vt -0.000000 0.628319 0.000000
vt -0.400000 0.628319 0.000000
vt -0.400000 0.837758 0.000000
vt -0.400000 1.047198 0.000000
vt -0.800000 0.000000 0.000000
vt -0.800000 -0.418879 0.000000
vt -0.800000 -0.837758 0.000000
vt -0.800000 -1.256637 0.000000
vt -0.800000 2.094395 0.000000
vt -0.800000 1.675516 0.000000
vt -0.800000 1.256637 0.000000
vt -0.800000 0.837758 0.000000
vt -0.800000 0.418879 0.000000
vt -0.000000 2.042036 0.000000
vt -0.000000 2.042036 0.000000
vt -0.800000 -1.675516 0.000000
vt -0.800000 -1.675516 0.000000
vt 0.000000 -0.600000 0.000000
vt 0.385673 -0.459627 0.000000
vt 0.590885 -0.104189 0.000000
vt 0.519615 0.300000 0.000000
vt 0.205212 0.563816 0.000000
vt -0.205212 0.563816 0.000000
vt -0.519615 0.300000 0.000000
vt -0.590885 -0.104189 0.000000
vt -0.385673 -0.459627 0.000000
vt 0.000000 -0.450000 0.000000
vt -0.289254 -0.344720 0.000000
vt -0.443163 -0.078142 0.000000
vt -0.389711 0.225000 0.000000
vt -0.153909 0.422862 0.000000
vt 0.153909 0.422862 0.000000
vt 0.389711 0.225000 0.000000
vt 0.443163 -0.078142 0.000000
vt 0.289254 -0.344720 0.000000
vt 0.000000 0.900000 0.000000
vt 0.600000 0.900000 0.000000
vt 0.600000 1.335800 0.000000
vt 0.000000 1.335800 0.000000
vt -0.197584 0.300000 0.000000
vt -0.197584 -0.300000 0.000000
vt 0.300000 -0.300000 0.000000
vt 0.300000 0.300000 0.000000
vn 0.000000 0.000000 0.100000
vn 0.000000 0.000000 0.100000
vn 0.000000 0.000000 0.100000
vn 0.000000 0.000000 0.100000
vn -0.100000 0.000000 0.000000
vn -0.100000 0.000000 0.000000
vn -0.100000 0.000000 0.000000
vn -0.100000 0.000000 0.000000
vn -0.100000 0.000000 0.000000
vn -0.100000 0.000000 0.000000
vn -0.100000 0.000000 0.000000
vn 0.000000 0.100000 0.000000
vn 0.000000 0.100000 0.000000
vn 0.000000 0.100000 0.000000
vn 0.000000 0.100000 0.000000
vn 0.000000 0.100000 0.000000
vn 0.000000 0.100000 0.000000
vn 0.100000 0.000000 0.000000
vn 0.100000 0.000000 0.000000
vn 0.100000 0.000000 0.000000
vn 0.100000 0.000000 0.000000
vn 0.100000 0.000000 0.000000
vn 0.100000 0.000000 0.000000
vn 0.100000 0.000000 0.000000
vn 0.000000 -0.100000 0.000000
vn 0.000000 -0.100000 0.000000
vn 0.000000 -0.100000 0.000000
vn 0.000000 -0.100000 0.000000
vn 0.000000 0.000000 -0.100000
vn 0.000000 0.000000 -0.100000
vn 0.000000 0.000000 -0.100000
vn 0.000000 0.000000 -0.100000
vn 0.000000 -0.100000 0.000000
vn 0.000000 -0.100000 0.000000
vn 0.000000 -0.100000 0.000000
vn 0.000000 -0.100000 0.000000
vn 0.000000 -0.100000 0.000000
vn 0.000000 -0.100000 0.000000
vn 0.000000 -0.100000 0.000000
vn 0.000000 -0.100000 0.000000
vn 0.000000 -0.100000 0.000000
vn 0.000000 0.100000 0.000000
vn 0.000000 0.100000 0.000000
vn 0.000000 0.100000 0.000000
vn 0.000000 0.100000 0.000000
vn 0.000000 0.000000 -0.100000
vn 0.000000 0.000000 -0.100000
vn 0.000000 0.000000 -0.100000
vn 0.000000 0.000000 -0.100000
vn 0.000000 -0.100000 0.000000
vn 0.000000 -0.100000 0.000000
vn 0.000000 -0.100000 0.000000
vn 0.000000 -0.100000 0.000000
vn 0.000000 0.100000 0.000000
vn 0.000000 0.100000 0.000000
vn 0.000000 0.100000 0.000000
vn 0.000000 0.100000 0.000000
vn 0.000000 0.100000 0.000000
vn 0.000000 0.100000 0.000000
vn 0.000000 0.100000 0.000000
vn 0.000000 0.100000 0.000000
vn 0.000000 0.100000 0.000000
vn 0.031360 0.000000 -0.094956
vn 0.010613 0.000000 -0.099435
vn -0.010613 0.000000 -0.099435
vn -0.031360 0.000000 -0.094956
vn -0.031360 0.000000 -0.094956
vn -0.010613 0.000000 -0.099435
vn 0.010613 0.000000 -0.099435
vn 0.031360 0.000000 -0.094956
vn 0.100000 0.000000 0.000000
vn 0.076604 0.000000 0.064279
vn 0.017365 0.000000 0.098481
vn -0.050000 0.000000 0.086603
vn -0.093969 0.000000 0.034202
vn -0.093969 0.000000 -0.034202
vn -0.050000 0.000000 -0.086603
vn 0.017365 0.000000 -0.098481
vn 0.076604 0.000000 -0.064279
vn 0.100000 0.000000 0.000000
vn 0.076604 0.000000 -0.064279
vn 0.017365 0.000000 -0.098481
vn -0.050000 0.000000 -0.086603
vn -0.093969 0.000000 -0.034202
vn -0.093969 0.000000 0.034202
vn -0.050000 0.000000 0.086603
vn 0.017365 0.000000 0.098481
vn 0.076604 0.000000 0.064279
vn 0.100000 0.000000 0.000000
vn 0.100000 0.000000 0.000000
vn 0.050000 0.000000 0.086603
vn 0.050000 0.000000 0.086603
vn 0.092388 0.000000 0.038268
vn 0.096593 0.000000 -0.025882
vn 0.060876 0.000000 -0.079335
vn 0.000000 0.000000 -0.100000
vn -0.060876 0.000000 -0.079335
vn -0.096593 0.000000 -0.025882
vn -0.092388 0.000000 0.038268
vn -0.050000 0.000000 0.086603
vn -0.050000 0.000000 0.086603
vn -0.017365 0.000000 0.098481
vn 0.017365 0.000000 0.098481
vn -0.100000 0.000000 0.000000
vn -0.076604 0.000000 -0.064279
vn -0.017365 0.000000 -0.098481
vn 0.050000 0.000000 -0.086603
vn 0.093969 0.000000 -0.034202
vn 0.093969 0.000000 0.034202
vn 0.050000 0.000000 0.086603
vn -0.017365 0.000000 0.098481
vn -0.076604 0.000000 0.064279
vn 0.096593 0.000000 -0.025882
vn 0.096593 0.000000 -0.025882
vn 0.093969 0.000000 -0.034202
vn 0.093969 0.000000 -0.034202
vn 0.000000 0.100000 0.000000
vn 0.000000 0.100000 0.000000
vn 0.000000 0.100000 0.000000
vn 0.000000 0.100000 0.000000
vn 0.000000 0.100000 0.000000
vn 0.000000 0.100000 0.000000
vn 0.000000 0.100000 0.000000
vn 0.000000 0.100000 0.000000
vn 0.000000 0.100000 0.000000
vn 0.000000 0.100000 0.000000
vn 0.000000 0.100000 0.000000
vn 0.000000 0.100000 0.000000
vn 0.000000 0.100000 0.000000
vn 0.000000 0.100000 0.000000
vn 0.000000 0.100000 0.000000
vn 0.000000 0.100000 0.000000
vn 0.000000 0.100000 0.000000
vn 0.000000 0.100000 0.000000
vn 0.000000 0.000000 -0.100000
vn 0.000000 0.000000 -0.100000
vn 0.000000 0.000000 -0.100000
vn 0.000000 0.000000 -0.100000
vn 0.000000 -0.100000 0.000000
vn 0.000000 -0.100000 0.000000
vn 0.000000 -0.100000 0.000000
vn 0.000000 -0.100000 0.000000
usemtl 191,191,191
f 14/1/1 42/2/2 19/4/4
f 19/4/4 42/2/2 47/3/3
f 13/11/11 14/5/5 16/10/10
f 16/10/10 14/5/5 19/6/6
f 16/10/10 19/6/6 18/7/7
f 18/7/7 17/8/8 16/10/10
f 16/10/10 17/8/8 15/9/9
f 47/13/13 34/15/15 19/12/12
f 19/12/12 34/15/15 22/16/16
f 19/12/12 22/16/16 18/17/17
f 47/13/13 46/14/14 34/15/15
f 46/24/24 47/18/18 44/21/21
f 44/21/21 47/18/18 42/19/19
f 44/21/21 42/19/19 41/20/20
f 43/22/22 45/23/23 44/21/21
f 44/21/21 45/23/23 46/24/24
f 16/26/26 15/27/27 44/25/25
f 44/25/25 15/27/27 43/28/28
f 17/29/29 45/30/30 15/32/32
f 15/32/32 45/30/30 43/31/31
f 55/41/41 45/33/33 50/39/39
f 50/39/39 45/33/33 17/34/34
f 50/39/39 17/34/34 31/38/38
f 31/38/38 17/34/34 8/37/37
f 8/37/37 17/34/34 3/35/35
f 8/37/37 3/35/35 2/36/36
f 50/39/39 58/40/40 55/41/41
f 30/43/43 33/44/44 21/42/42
f 21/42/42 33/44/44 36/45/45
f 35/47/47 20/48/48 36/46/46
f 36/46/46 20/48/48 21/49/49
f 32/51/51 29/52/52 35/50/50
f 35/50/50 29/52/52 20/53/53
f 10/55/55 52/58/58 6/54/54
f 6/54/54 52/58/58 51/59/59
f 6/54/54 51/59/59 9/62/62
f 9/62/62 51/59/59 37/60/60
f 9/62/62 37/60/60 25/61/61
f 26/56/56 38/57/57 10/55/55
f 10/55/55 38/57/57 52/58/58
f 29/64/64 26/78/78 20/63/63
f 20/63/63 26/78/78 10/79/79
f 20/63/63 10/79/79 21/70/70
f 21/70/70 10/79/79 12/81/81
f 21/70/70 12/81/81 28/82/82
f 29/64/64 32/65/65 26/78/78
f 26/78/78 32/65/65 38/77/77
f 38/77/77 32/65/65 35/66/66
f 38/77/77 35/66/66 36/67/67
f 38/77/77 36/67/67 40/83/83
f 40/83/83 36/67/67 33/68/68
f 40/83/83 33/68/68 28/82/82
f 28/82/82 33/68/68 30/69/69
f 28/82/82 30/69/69 21/70/70
f 9/72/72 11/88/88 6/71/71
f 6/71/71 11/88/88 7/89/89
f 6/90/90 7/80/80 10/79/79
f 10/79/79 7/80/80 12/81/81
f 11/88/88 9/72/72 27/87/87
f 27/87/87 9/72/72 25/73/73
f 27/87/87 25/73/73 39/86/86
f 39/86/86 25/73/73 37/74/74
f 39/86/86 37/74/74 53/85/85
f 53/85/85 37/74/74 51/75/75
f 53/85/85 51/75/75 54/84/84
f 54/84/84 51/75/75 52/76/76
f 54/84/84 52/76/76 40/83/83
f 40/83/83 52/76/76 38/77/77
f 45/92/92 55/93/93 46/91/91
f 46/91/91 55/93/93 57/109/109
f 46/91/91 57/109/109 49/110/110
f 55/93/93 58/113/113 57/109/109
f 57/109/109 58/114/114 56/108/108
f 56/115/115 58/94/94 50/95/95
f 56/116/116 50/95/95 48/107/107
f 48/107/107 50/95/95 31/96/96
f 48/107/107 31/96/96 23/106/106
f 23/106/106 31/96/96 8/97/97
f 23/106/106 8/97/97 4/105/105
f 4/105/105 8/97/97 2/98/98
f 4/105/105 2/98/98 1/104/104
f 1/104/104 2/98/98 3/99/99
f 1/104/104 3/99/99 5/112/112
f 5/112/112 3/99/99 18/101/101
f 5/112/112 18/101/101 24/111/111
f 24/111/111 18/101/101 22/102/102
f 24/111/111 22/102/102 34/103/103
f 3/99/99 17/100/100 18/101/101
f 24/111/111 34/103/103 49/110/110
f 49/110/110 34/103/103 46/91/91
f 5/118/118 12/134/134 1/117/117
f 1/117/117 12/134/134 7/126/126
f 1/117/117 7/126/126 11/127/127
f 12/134/134 5/118/118 28/133/133
f 28/133/133 5/118/118 24/119/119
f 28/133/133 24/119/119 49/120/120
f 28/133/133 49/120/120 40/132/132
f 40/132/132 49/120/120 57/121/121
f 40/132/132 57/121/121 54/131/131
f 54/131/131 57/121/121 56/122/122
f 54/131/131 56/122/122 53/130/130
f 53/130/130 56/122/122 39/129/129
f 39/129/129 56/122/122 48/123/123
f 39/129/129 48/123/123 27/128/128
f 27/128/128 48/123/123 23/124/124
f 27/128/128 23/124/124 4/125/125
f 27/128/128 4/125/125 11/127/127
f 11/127/127 4/125/125 1/117/117
f 16/135/135 44/136/136 13/138/138
f 13/138/138 44/136/136 41/137/137
f 14/140/140 13/141/141 42/139/139
f 42/139/139 13/141/141 41/142/142

# 58 vertices
# 142 texture params
# 142 normals
# 112 facets

# 1 groups
