# WaveFront *.obj file (generated by Autodesk ATF)

mtllib ServoBraceB.mtl

g Solid1

v 0.000000 0.000000 -25.000000
v 0.000000 0.000000 0.000000
v 0.000000 8.000000 -25.000000
v 0.000000 8.000000 0.000000
v 7.000000 0.000000 -14.000000
v 7.017835 8.000000 -14.442567
v 7.017835 8.000000 -13.557434
v 7.071223 0.000000 -14.882262
v 7.071223 0.000000 -13.117738
v 7.159820 8.000000 -15.316236
v 7.159820 8.000000 -12.683764
v 7.283050 0.000000 -15.741674
v 7.283050 0.000000 -12.258326
v 7.440113 8.000000 -16.155816
v 7.440113 8.000000 -11.844183
v 7.629992 0.000000 -16.555977
v 7.629992 0.000000 -11.444023
v 7.851455 8.000000 -16.939563
v 7.851455 8.000000 -11.060438
v 8.103065 0.000000 -17.304082
v 8.103065 0.000000 -10.695918
v 8.383191 8.000000 -17.647175
v 8.383191 8.000000 -10.352825
v 8.690016 0.000000 -17.966614
v 8.690016 0.000000 -10.033387
v 9.021550 8.000000 -18.260328
v 9.021550 8.000000 -9.739673
v 9.375644 0.000000 -18.526411
v 9.375644 0.000000 -9.473588
v 9.750000 8.000000 -18.763139
v 9.750000 8.000000 -9.236860
v 10.142190 0.000000 -18.968978
v 10.142190 0.000000 -9.031023
v 10.549673 8.000000 -19.142590
v 10.549673 8.000000 -8.857411
v 10.969805 0.000000 -19.282850
v 10.969805 0.000000 -8.717150
v 11.399859 8.000000 -19.388849
v 11.399859 8.000000 -8.611152
v 11.837049 0.000000 -19.459898
v 11.837049 0.000000 -8.540101
v 12.278538 8.000000 -19.495540
v 12.278538 8.000000 -8.504460
v 12.721462 0.000000 -19.495540
v 12.721462 0.000000 -8.504460
v 13.162951 8.000000 -19.459898
v 13.162951 8.000000 -8.540101
v 13.600141 0.000000 -19.388849
v 13.600141 0.000000 -8.611152
v 14.030195 8.000000 -19.282850
v 14.030195 8.000000 -8.717150
v 14.450327 0.000000 -19.142590
v 14.450327 0.000000 -8.857411
v 14.857810 8.000000 -18.968978
v 14.857810 8.000000 -9.031023
v 15.250000 0.000000 -18.763139
v 15.250000 0.000000 -9.236860
v 15.624356 8.000000 -18.526411
v 15.624356 8.000000 -9.473588
v 15.978450 0.000000 -18.260328
v 15.978450 0.000000 -9.739673
v 16.309984 8.000000 -17.966614
v 16.309984 8.000000 -10.033387
v 16.616809 0.000000 -17.647175
v 16.616809 0.000000 -10.352825
v 16.896936 8.000000 -17.304082
v 16.896936 8.000000 -10.695918
v 17.148546 0.000000 -16.939563
v 17.148546 0.000000 -11.060438
v 17.370008 8.000000 -16.555977
v 17.370008 8.000000 -11.444023
v 17.559887 0.000000 -16.155816
v 17.559887 0.000000 -11.844183
v 17.716950 8.000000 -15.741674
v 17.716950 8.000000 -12.258326
v 17.840180 0.000000 -15.316236
v 17.840180 0.000000 -12.683764
v 17.928777 8.000000 -14.882262
v 17.928777 8.000000 -13.117738
v 17.982165 0.000000 -14.442567
v 17.982165 0.000000 -13.557434
v 18.000000 8.000000 -14.000000
v 25.000000 0.000000 -25.000000
v 25.000000 0.000000 0.000000
v 25.000000 8.000000 -25.000000
v 25.000000 8.000000 0.000000
vt 0.800000 -1.727876 0.000000
vt 0.800000 -1.639267 0.000000
vt 0.800000 -1.550658 0.000000
vt 0.800000 -1.462049 0.000000
vt 0.800000 -1.373440 0.000000
vt 0.800000 -1.284831 0.000000
vt 0.800000 -1.196222 0.000000
vt 0.800000 -1.107613 0.000000
vt 0.800000 -1.019004 0.000000
vt 0.800000 -0.930395 0.000000
vt 0.800000 -0.841786 0.000000
vt 0.800000 -0.753177 0.000000
vt 0.800000 -0.664568 0.000000
vt 0.800000 -0.575959 0.000000
vt 0.800000 -0.487350 0.000000
vt 0.800000 -0.398741 0.000000
vt 0.800000 -0.310132 0.000000
vt 0.800000 -0.221523 0.000000
vt 0.800000 -0.132914 0.000000
vt 0.800000 -0.044305 0.000000
vt 0.800000 0.044305 0.000000
vt 0.800000 0.132914 0.000000
vt 0.800000 0.221523 0.000000
vt 0.800000 0.310132 0.000000
vt 0.800000 0.398741 0.000000
vt 0.800000 0.487350 0.000000
vt 0.800000 0.575959 0.000000
vt 0.800000 0.664568 0.000000
vt 0.800000 0.753177 0.000000
vt 0.800000 0.841786 0.000000
vt 0.800000 0.930395 0.000000
vt 0.800000 1.019004 0.000000
vt 0.800000 1.107613 0.000000
vt 0.800000 1.196222 0.000000
vt 0.800000 1.284831 0.000000
vt 0.800000 1.373440 0.000000
vt 0.800000 1.462049 0.000000
vt 0.800000 1.550658 0.000000
vt 0.800000 1.639267 0.000000
vt 0.000000 0.000000 0.000000
vt 0.000000 -0.088609 0.000000
vt 0.000000 -0.177218 0.000000
vt 0.000000 -0.265827 0.000000
vt 0.000000 -0.354436 0.000000
vt 0.000000 -0.443045 0.000000
vt 0.000000 -0.531654 0.000000
vt 0.000000 -0.620263 0.000000
vt 0.000000 -0.708872 0.000000
vt 0.000000 -0.797481 0.000000
vt 0.000000 -0.886090 0.000000
vt 0.000000 -0.974699 0.000000
vt 0.000000 -1.063308 0.000000
vt 0.000000 -1.151917 0.000000
vt 0.000000 -1.240526 0.000000
vt 0.000000 -1.329135 0.000000
vt 0.000000 -1.417744 0.000000
vt 0.000000 -1.506353 0.000000
vt 0.000000 -1.594962 0.000000
vt 0.000000 1.772180 0.000000
vt 0.000000 1.683571 0.000000
vt 0.000000 1.594962 0.000000
vt 0.000000 1.506353 0.000000
vt 0.000000 1.417744 0.000000
vt 0.000000 1.329135 0.000000
vt 0.000000 1.240526 0.000000
vt 0.000000 1.151917 0.000000
vt 0.000000 1.063308 0.000000
vt 0.000000 0.974699 0.000000
vt 0.000000 0.886090 0.000000
vt 0.000000 0.797481 0.000000
vt 0.000000 0.708872 0.000000
vt 0.000000 0.620263 0.000000
vt 0.000000 0.531654 0.000000
vt 0.000000 0.443045 0.000000
vt 0.000000 0.354436 0.000000
vt 0.000000 0.265827 0.000000
vt 0.000000 0.177218 0.000000
vt 0.000000 0.088609 0.000000
vt 0.000000 -1.683572 0.000000
vt 0.800000 1.727876 0.000000
vt 0.800000 1.727876 0.000000
vt 0.000000 -1.683572 0.000000
vt 1.400000 0.700000 0.000000
vt 1.311774 0.707122 0.000000
vt 1.225833 0.728305 0.000000
vt 1.144402 0.762999 0.000000
vt 1.069592 0.810306 0.000000
vt 1.003339 0.869002 0.000000
vt 0.947359 0.937564 0.000000
vt 0.903102 1.014219 0.000000
vt 0.871715 1.096980 0.000000
vt 0.854010 1.183705 0.000000
vt 0.850446 1.272146 0.000000
vt 0.861115 1.360014 0.000000
vt 0.885741 1.445033 0.000000
vt 0.923686 1.525000 0.000000
vt 0.973967 1.597845 0.000000
vt 1.035282 1.661681 0.000000
vt 1.106044 1.714855 0.000000
vt 1.184418 1.755989 0.000000
vt 1.268376 1.784018 0.000000
vt 1.355743 1.798216 0.000000
vt 1.444257 1.798216 0.000000
vt 1.531624 1.784018 0.000000
vt 1.615582 1.755989 0.000000
vt 1.693956 1.714855 0.000000
vt 1.764717 1.661681 0.000000
vt 1.826033 1.597845 0.000000
vt 1.876314 1.525000 0.000000
vt 1.914259 1.445033 0.000000
vt 1.938885 1.360014 0.000000
vt 1.949554 1.272146 0.000000
vt 1.945990 1.183705 0.000000
vt 1.928285 1.096980 0.000000
vt 1.896898 1.014219 0.000000
vt 1.852641 0.937564 0.000000
vt 1.796661 0.869002 0.000000
vt 1.730408 0.810306 0.000000
vt 1.655598 0.762999 0.000000
vt 1.574167 0.728305 0.000000
vt 1.488226 0.707122 0.000000
vt 0.000000 0.000000 0.000000
vt 2.500000 0.000000 0.000000
vt 2.500000 2.500000 0.000000
vt 0.000000 2.500000 0.000000
vt 0.000000 0.000000 0.000000
vt 0.800000 0.000000 0.000000
vt 0.800000 2.500000 0.000000
vt 0.000000 2.500000 0.000000
vt 1.100000 1.800000 0.000000
vt 1.188226 1.792878 0.000000
vt 1.274167 1.771695 0.000000
vt 1.355598 1.737001 0.000000
vt 1.430408 1.689694 0.000000
vt 1.496661 1.630998 0.000000
vt 1.552641 1.562436 0.000000
vt 1.596898 1.485781 0.000000
vt 1.628285 1.403020 0.000000
vt 1.645990 1.316295 0.000000
vt 1.649554 1.227854 0.000000
vt 1.638885 1.139986 0.000000
vt 1.614259 1.054967 0.000000
vt 1.576314 0.975000 0.000000
vt 1.526033 0.902155 0.000000
vt 1.464718 0.838319 0.000000
vt 1.393956 0.785145 0.000000
vt 1.315582 0.744011 0.000000
vt 1.231624 0.715982 0.000000
vt 1.144257 0.701783 0.000000
vt 1.055743 0.701783 0.000000
vt 0.968376 0.715982 0.000000
vt 0.884418 0.744011 0.000000
vt 0.806044 0.785145 0.000000
vt 0.735283 0.838319 0.000000
vt 0.673967 0.902155 0.000000
vt 0.623686 0.975000 0.000000
vt 0.585741 1.054967 0.000000
vt 0.561115 1.139986 0.000000
vt 0.550446 1.227854 0.000000
vt 0.554010 1.316295 0.000000
vt 0.571715 1.403020 0.000000
vt 0.603102 1.485781 0.000000
vt 0.647359 1.562436 0.000000
vt 0.703339 1.630998 0.000000
vt 0.769592 1.689694 0.000000
vt 0.844402 1.737001 0.000000
vt 0.925833 1.771695 0.000000
vt 1.011774 1.792878 0.000000
vt 0.000000 0.000000 0.000000
vt 2.500000 0.000000 0.000000
vt 2.500000 2.500000 0.000000
vt 0.000000 2.500000 0.000000
vt 0.000000 0.000000 0.000000
vt 0.800000 0.000000 0.000000
vt 0.800000 2.500000 0.000000
vt 0.000000 2.500000 0.000000
vt 1.250000 -0.400000 0.000000
vt 1.250000 0.400000 0.000000
vt -1.250000 0.400000 0.000000
vt -1.250000 -0.400000 0.000000
vt -1.250000 0.400000 0.000000
vt -1.250000 -0.400000 0.000000
vt 1.250000 -0.400000 0.000000
vt 1.250000 0.400000 0.000000
vn 0.100000 0.000000 0.000000
vn 0.098705 0.000000 0.016041
vn 0.094854 0.000000 0.031667
vn 0.088546 0.000000 0.046472
vn 0.079944 0.000000 0.060074
vn 0.069272 0.000000 0.072120
vn 0.056806 0.000000 0.082298
vn 0.042869 0.000000 0.090345
vn 0.027822 0.000000 0.096052
vn 0.012054 0.000000 0.099271
vn -0.004027 0.000000 0.099919
vn -0.020003 0.000000 0.097979
vn -0.035460 0.000000 0.093502
vn -0.050000 0.000000 0.086603
vn -0.063245 0.000000 0.077460
vn -0.074851 0.000000 0.066312
vn -0.084519 0.000000 0.053447
vn -0.091998 0.000000 0.039197
vn -0.097094 0.000000 0.023932
vn -0.099676 0.000000 0.008047
vn -0.099676 0.000000 -0.008047
vn -0.097094 0.000000 -0.023932
vn -0.091998 0.000000 -0.039197
vn -0.084519 0.000000 -0.053447
vn -0.074851 0.000000 -0.066312
vn -0.063245 0.000000 -0.077460
vn -0.050000 0.000000 -0.086603
vn -0.035460 0.000000 -0.093502
vn -0.020003 0.000000 -0.097979
vn -0.004027 0.000000 -0.099919
vn 0.012054 0.000000 -0.099271
vn 0.027822 0.000000 -0.096052
vn 0.042869 0.000000 -0.090345
vn 0.056806 0.000000 -0.082298
vn 0.069272 0.000000 -0.072120
vn 0.079944 0.000000 -0.060074
vn 0.088546 0.000000 -0.046472
vn 0.094854 0.000000 -0.031667
vn 0.098705 0.000000 -0.016041
vn -0.100000 0.000000 0.000000
vn -0.098705 0.000000 0.016041
vn -0.094854 0.000000 0.031667
vn -0.088546 0.000000 0.046472
vn -0.079944 0.000000 0.060074
vn -0.069272 0.000000 0.072120
vn -0.056806 0.000000 0.082298
vn -0.042869 0.000000 0.090345
vn -0.027822 0.000000 0.096052
vn -0.012054 0.000000 0.099271
vn 0.004027 0.000000 0.099919
vn 0.020003 0.000000 0.097979
vn 0.035460 0.000000 0.093502
vn 0.050000 0.000000 0.086603
vn 0.063245 0.000000 0.077460
vn 0.074851 0.000000 0.066312
vn 0.084519 0.000000 0.053447
vn 0.091998 0.000000 0.039197
vn 0.097094 0.000000 0.023932
vn 0.099676 0.000000 0.008047
vn 0.099676 0.000000 -0.008047
vn 0.097094 0.000000 -0.023932
vn 0.091998 0.000000 -0.039197
vn 0.084519 0.000000 -0.053447
vn 0.074851 0.000000 -0.066312
vn 0.063245 0.000000 -0.077460
vn 0.050000 0.000000 -0.086603
vn 0.035460 0.000000 -0.093502
vn 0.020003 0.000000 -0.097979
vn 0.004027 0.000000 -0.099919
vn -0.012054 0.000000 -0.099271
vn -0.027822 0.000000 -0.096052
vn -0.042869 0.000000 -0.090345
vn -0.056806 0.000000 -0.082298
vn -0.069272 0.000000 -0.072120
vn -0.079944 0.000000 -0.060074
vn -0.088546 0.000000 -0.046472
vn -0.094854 0.000000 -0.031667
vn -0.098705 0.000000 -0.016041
vn 0.099676 0.000000 0.008047
vn 0.100000 0.000000 0.000000
vn 0.100000 0.000000 0.000000
vn 0.099676 0.000000 0.008047
vn 0.000000 -0.100000 0.000000
vn 0.000000 -0.100000 0.000000
vn 0.000000 -0.100000 0.000000
vn 0.000000 -0.100000 0.000000
vn 0.000000 -0.100000 0.000000
vn 0.000000 -0.100000 0.000000
vn 0.000000 -0.100000 0.000000
vn 0.000000 -0.100000 0.000000
vn 0.000000 -0.100000 0.000000
vn 0.000000 -0.100000 0.000000
vn 0.000000 -0.100000 0.000000
vn 0.000000 -0.100000 0.000000
vn 0.000000 -0.100000 0.000000
vn 0.000000 -0.100000 0.000000
vn 0.000000 -0.100000 0.000000
vn 0.000000 -0.100000 0.000000
vn 0.000000 -0.100000 0.000000
vn 0.000000 -0.100000 0.000000
vn 0.000000 -0.100000 0.000000
vn 0.000000 -0.100000 0.000000
vn 0.000000 -0.100000 0.000000
vn 0.000000 -0.100000 0.000000
vn 0.000000 -0.100000 0.000000
vn 0.000000 -0.100000 0.000000
vn 0.000000 -0.100000 0.000000
vn 0.000000 -0.100000 0.000000
vn 0.000000 -0.100000 0.000000
vn 0.000000 -0.100000 0.000000
vn 0.000000 -0.100000 0.000000
vn 0.000000 -0.100000 0.000000
vn 0.000000 -0.100000 0.000000
vn 0.000000 -0.100000 0.000000
vn 0.000000 -0.100000 0.000000
vn 0.000000 -0.100000 0.000000
vn 0.000000 -0.100000 0.000000
vn 0.000000 -0.100000 0.000000
vn 0.000000 -0.100000 0.000000
vn 0.000000 -0.100000 0.000000
vn 0.000000 -0.100000 0.000000
vn 0.000000 -0.100000 0.000000
vn 0.000000 -0.100000 0.000000
vn 0.000000 -0.100000 0.000000
vn 0.000000 -0.100000 0.000000
vn 0.000000 0.000000 0.100000
vn 0.000000 0.000000 0.100000
vn 0.000000 0.000000 0.100000
vn 0.000000 0.000000 0.100000
vn 0.000000 0.100000 0.000000
vn 0.000000 0.100000 0.000000
vn 0.000000 0.100000 0.000000
vn 0.000000 0.100000 0.000000
vn 0.000000 0.100000 0.000000
vn 0.000000 0.100000 0.000000
vn 0.000000 0.100000 0.000000
vn 0.000000 0.100000 0.000000
vn 0.000000 0.100000 0.000000
vn 0.000000 0.100000 0.000000
vn 0.000000 0.100000 0.000000
vn 0.000000 0.100000 0.000000
vn 0.000000 0.100000 0.000000
vn 0.000000 0.100000 0.000000
vn 0.000000 0.100000 0.000000
vn 0.000000 0.100000 0.000000
vn 0.000000 0.100000 0.000000
vn 0.000000 0.100000 0.000000
vn 0.000000 0.100000 0.000000
vn 0.000000 0.100000 0.000000
vn 0.000000 0.100000 0.000000
vn 0.000000 0.100000 0.000000
vn 0.000000 0.100000 0.000000
vn 0.000000 0.100000 0.000000
vn 0.000000 0.100000 0.000000
vn 0.000000 0.100000 0.000000
vn 0.000000 0.100000 0.000000
vn 0.000000 0.100000 0.000000
vn 0.000000 0.100000 0.000000
vn 0.000000 0.100000 0.000000
vn 0.000000 0.100000 0.000000
vn 0.000000 0.100000 0.000000
vn 0.000000 0.100000 0.000000
vn 0.000000 0.100000 0.000000
vn 0.000000 0.100000 0.000000
vn 0.000000 0.100000 0.000000
vn 0.000000 0.100000 0.000000
vn 0.000000 0.100000 0.000000
vn 0.000000 0.100000 0.000000
vn 0.000000 0.100000 0.000000
vn 0.000000 0.100000 0.000000
vn 0.000000 0.100000 0.000000
vn 0.000000 0.100000 0.000000
vn 0.000000 0.000000 -0.100000
vn 0.000000 0.000000 -0.100000
vn 0.000000 0.000000 -0.100000
vn 0.000000 0.000000 -0.100000
vn 0.100000 0.000000 0.000000
vn 0.100000 0.000000 0.000000
vn 0.100000 0.000000 0.000000
vn 0.100000 0.000000 0.000000
vn -0.100000 0.000000 0.000000
vn -0.100000 0.000000 0.000000
vn -0.100000 0.000000 0.000000
vn -0.100000 0.000000 0.000000
usemtl 191,191,191
f 8/2/2 6/79/79 5/1/1
f 5/80/80 6/59/59 7/60/60
f 5/81/81 7/60/60 9/39/39
f 9/39/39 7/60/60 11/61/61
f 9/39/39 11/61/61 13/38/38
f 13/38/38 11/61/61 15/62/62
f 13/38/38 15/62/62 17/37/37
f 17/37/37 15/62/62 19/63/63
f 17/37/37 19/63/63 21/36/36
f 21/36/36 19/63/63 23/64/64
f 21/36/36 23/64/64 25/35/35
f 25/35/35 23/64/64 27/65/65
f 25/35/35 27/65/65 29/34/34
f 29/34/34 27/65/65 31/66/66
f 29/34/34 31/66/66 33/33/33
f 33/33/33 31/66/66 35/67/67
f 33/33/33 35/67/67 37/32/32
f 37/32/32 35/67/67 39/68/68
f 37/32/32 39/68/68 41/31/31
f 41/31/31 39/68/68 43/69/69
f 41/31/31 43/69/69 45/30/30
f 45/30/30 43/69/69 47/70/70
f 45/30/30 47/70/70 49/29/29
f 49/29/29 47/70/70 51/71/71
f 49/29/29 51/71/71 53/28/28
f 53/28/28 51/71/71 55/72/72
f 53/28/28 55/72/72 57/27/27
f 57/27/27 55/72/72 59/73/73
f 57/27/27 59/73/73 61/26/26
f 61/26/26 59/73/73 63/74/74
f 61/26/26 63/74/74 65/25/25
f 65/25/25 63/74/74 67/75/75
f 65/25/25 67/75/75 69/24/24
f 69/24/24 67/75/75 71/76/76
f 69/24/24 71/76/76 73/23/23
f 73/23/23 71/76/76 75/77/77
f 73/23/23 75/77/77 77/22/22
f 77/22/22 75/77/77 79/78/78
f 77/22/22 79/78/78 81/21/21
f 81/21/21 79/78/78 82/40/40
f 81/21/21 82/40/40 80/20/20
f 80/20/20 82/40/40 78/41/41
f 80/20/20 78/41/41 76/19/19
f 76/19/19 78/41/41 74/42/42
f 76/19/19 74/42/42 72/18/18
f 72/18/18 74/42/42 70/43/43
f 72/18/18 70/43/43 68/17/17
f 68/17/17 70/43/43 66/44/44
f 68/17/17 66/44/44 64/16/16
f 64/16/16 66/44/44 62/45/45
f 64/16/16 62/45/45 60/15/15
f 60/15/15 62/45/45 58/46/46
f 60/15/15 58/46/46 56/14/14
f 56/14/14 58/46/46 54/47/47
f 56/14/14 54/47/47 52/13/13
f 52/13/13 54/47/47 50/48/48
f 52/13/13 50/48/48 48/12/12
f 48/12/12 50/48/48 46/49/49
f 48/12/12 46/49/49 44/11/11
f 44/11/11 46/49/49 42/50/50
f 44/11/11 42/50/50 40/10/10
f 40/10/10 42/50/50 38/51/51
f 40/10/10 38/51/51 36/9/9
f 36/9/9 38/51/51 34/52/52
f 36/9/9 34/52/52 32/8/8
f 32/8/8 34/52/52 30/53/53
f 32/8/8 30/53/53 28/7/7
f 28/7/7 30/53/53 26/54/54
f 28/7/7 26/54/54 24/6/6
f 24/6/6 26/54/54 22/55/55
f 24/6/6 22/55/55 20/5/5
f 20/5/5 22/55/55 18/56/56
f 20/5/5 18/56/56 16/4/4
f 16/4/4 18/56/56 14/57/57
f 16/4/4 14/57/57 12/3/3
f 12/3/3 14/57/57 10/58/58
f 12/3/3 10/58/58 8/2/2
f 8/2/2 10/58/58 6/82/82
f 9/84/84 2/122/122 5/83/83
f 5/83/83 2/122/122 1/123/123
f 5/83/83 1/123/123 8/121/121
f 8/121/121 1/123/123 12/120/120
f 12/120/120 1/123/123 16/119/119
f 16/119/119 1/123/123 20/118/118
f 20/118/118 1/123/123 24/117/117
f 24/117/117 1/123/123 28/116/116
f 28/116/116 1/123/123 32/115/115
f 32/115/115 1/123/123 36/114/114
f 36/114/114 1/123/123 40/113/113
f 40/113/113 1/123/123 44/112/112
f 44/112/112 1/123/123 83/124/124
f 44/112/112 83/124/124 48/111/111
f 48/111/111 83/124/124 52/110/110
f 52/110/110 83/124/124 56/109/109
f 56/109/109 83/124/124 60/108/108
f 60/108/108 83/124/124 64/107/107
f 64/107/107 83/124/124 68/106/106
f 68/106/106 83/124/124 72/105/105
f 72/105/105 83/124/124 76/104/104
f 76/104/104 83/124/124 80/103/103
f 80/103/103 83/124/124 81/102/102
f 81/102/102 83/124/124 84/125/125
f 81/102/102 84/125/125 77/101/101
f 77/101/101 84/125/125 73/100/100
f 73/100/100 84/125/125 69/99/99
f 69/99/99 84/125/125 65/98/98
f 65/98/98 84/125/125 61/97/97
f 61/97/97 84/125/125 57/96/96
f 57/96/96 84/125/125 53/95/95
f 53/95/95 84/125/125 49/94/94
f 49/94/94 84/125/125 45/93/93
f 45/93/93 84/125/125 2/122/122
f 45/93/93 2/122/122 41/92/92
f 41/92/92 2/122/122 37/91/91
f 37/91/91 2/122/122 33/90/90
f 33/90/90 2/122/122 29/89/89
f 29/89/89 2/122/122 25/88/88
f 25/88/88 2/122/122 21/87/87
f 21/87/87 2/122/122 17/86/86
f 17/86/86 2/122/122 13/85/85
f 13/85/85 2/122/122 9/84/84
f 4/126/126 2/127/127 86/129/129
f 86/129/129 2/127/127 84/128/128
f 79/131/131 86/171/171 82/130/130
f 82/130/130 86/171/171 85/172/172
f 82/130/130 85/172/172 78/168/168
f 78/168/168 85/172/172 74/167/167
f 74/167/167 85/172/172 70/166/166
f 70/166/166 85/172/172 66/165/165
f 66/165/165 85/172/172 62/164/164
f 62/164/164 85/172/172 58/163/163
f 58/163/163 85/172/172 54/162/162
f 54/162/162 85/172/172 50/161/161
f 50/161/161 85/172/172 46/160/160
f 46/160/160 85/172/172 42/159/159
f 42/159/159 85/172/172 3/169/169
f 42/159/159 3/169/169 38/158/158
f 38/158/158 3/169/169 34/157/157
f 34/157/157 3/169/169 30/156/156
f 30/156/156 3/169/169 26/155/155
f 26/155/155 3/169/169 22/154/154
f 22/154/154 3/169/169 18/153/153
f 18/153/153 3/169/169 14/152/152
f 14/152/152 3/169/169 10/151/151
f 10/151/151 3/169/169 6/150/150
f 6/150/150 3/169/169 7/149/149
f 7/149/149 3/169/169 4/170/170
f 7/149/149 4/170/170 11/148/148
f 11/148/148 4/170/170 15/147/147
f 15/147/147 4/170/170 19/146/146
f 19/146/146 4/170/170 23/145/145
f 23/145/145 4/170/170 27/144/144
f 27/144/144 4/170/170 31/143/143
f 31/143/143 4/170/170 35/142/142
f 35/142/142 4/170/170 39/141/141
f 39/141/141 4/170/170 43/140/140
f 43/140/140 4/170/170 86/171/171
f 43/140/140 86/171/171 47/139/139
f 47/139/139 86/171/171 51/138/138
f 51/138/138 86/171/171 55/137/137
f 55/137/137 86/171/171 59/136/136
f 59/136/136 86/171/171 63/135/135
f 63/135/135 86/171/171 67/134/134
f 67/134/134 86/171/171 71/133/133
f 71/133/133 86/171/171 75/132/132
f 75/132/132 86/171/171 79/131/131
f 1/173/173 3/174/174 83/176/176
f 83/176/176 3/174/174 85/175/175
f 85/178/178 86/179/179 83/177/177
f 83/177/177 86/179/179 84/180/180
f 1/182/182 2/183/183 3/181/181
f 3/181/181 2/183/183 4/184/184

# 86 vertices
# 184 texture params
# 184 normals
# 172 facets

# 1 groups
